PathFileType	4	(X/Y/Z)	RBDS05\RBDS05runT35.trc
DataRate	CameraRate	NumFrames	NumMarkers	Units	OrigDataRate	OrigDataStartFrame	OrigNumFrames
150.000000	150.000000	5	33	mm	150.000000	2250	4500
Frame#	Time	L.ASIS			L.Heel.Bottom			L.Heel.Lateral			L.Heel.Top			L.Iliac.Crest			L.MT1			L.MT5			L.PSIS			L.Shank.Bottom.Lateral			L.Shank.Bottom.Medial			L.Shank.Top.Lateral			L.Shank.Top.Medial			L.Thigh.Bottom.Lateral			L.Thigh.Bottom.Medial			L.Thigh.Top.Lateral			L.Thigh.Top.Medial			R.ASIS			R.ASY			R.Heel.Bottom			R.Heel.Lateral			R.Heel.Top			R.Iliac.Crest			R.MT1			R.MT5			R.PSIS			R.Shank.Bottom.Lateral			R.Shank.Bottom.Medial			R.Shank.Top.Lateral			R.Shank.Top.Medial			R.Thigh.Bottom.Lateral			R.Thigh.Bottom.Medial			R.Thigh.Top.Lateral			R.Thigh.Top.Medial			
		X1	Y1	Z1	X2	Y2	Z2	X3	Y3	Z3	X4	Y4	Z4	X5	Y5	Z5	X6	Y6	Z6	X7	Y7	Z7	X8	Y8	Z8	X9	Y9	Z9	X10	Y10	Z10	X11	Y11	Z11	X12	Y12	Z12	X13	Y13	Z13	X14	Y14	Z14	X15	Y15	Z15	X16	Y16	Z16	X17	Y17	Z17	X18	Y18	Z18	X19	Y19	Z19	X20	Y20	Z20	X21	Y21	Z21	X22	Y22	Z22	X23	Y23	Z23	X24	Y24	Z24	X25	Y25	Z25	X26	Y26	Z26	X27	Y27	Z27	X28	Y28	Z28	X29	Y29	Z29	X30	Y30	Z30	X31	Y31	Z31	X32	Y32	Z32	X33	Y33	Z33	

2251	15	2250.971996852069	931.0138791478101	925.3124236696513	1788.574698417513	86.26748266220783	1001.259294621339	1822.873608709965	92.82358836992519	957.7261162699125	1814.216354285453	129.179508197279	1000.863645021475	2203.262611632782	999.9641664848091	893.6790702470481	1985.072822140575	43.30761008563021	1034.134626774416	1952.23403169292	43.80265604076828	933.5792280789698	2106.749587426492	983.5703086426512	1007.399348364495	1915.58656039795	195.660590852124	933.6238203145829	1882.652479389065	216.589916914412	966.3614335000782	1948.093452939269	267.1644390923891	914.497848911643	1915.583052340328	292.0624941787132	948.2663359839001	2111.666248566672	589.127668589544	876.7703180910646	2052.223552528297	590.0012112318111	918.9120154351394	2108.724947366297	699.6618857676419	876.4663507620756	2057.635201309464	700.5166868269991	922.5563313516196	2267.161169341751	943.9997398484106	1148.582879370115	2145.43943911905	169.609849419994	1089.047333669913	1985.037268605439	251.9783939618767	1074.537629491591	2013.280988942419	243.4975097172019	1113.540427160312	2026.580387713937	276.295096892443	1073.656566930911	2214.97305874377	992.3386102560548	1186.426010473405	2133.55826459942	108.9165381028805	1047.246877496897	2111.874212697828	127.8957397012651	1149.3925281472	2113.228322489892	984.4080529388256	1095.784566509291	2133.760959636306	307.9276321095138	1136.156727059045	2106.967393673158	338.2267575244264	1099.157707488872	2182.581111004475	371.7999006121864	1149.656699488796	2156.566318948879	399.8147512108432	1111.805273161559	2351.494826942926	601.4019477160768	1189.935873606313	2293.998969478258	567.1790675747116	1160.254589750389	2288.293727896203	690.0214021141514	1208.014723166669	2232.04272502411	655.6036600524981	1183.249597409093	
2252	15.00666666666667	2252.332703754247	934.7890707071041	925.1983284285583	1771.548906002738	99.27353876706285	1000.407630388308	1806.273331826413	103.0783900398931	956.8681385626385	1799.893492294453	140.2440248035012	999.7869613630388	2208.149393862653	1004.822937652612	893.9671566780462	1963.685615039756	43.58798646148721	1033.730254651517	1930.904028455148	45.35740119881795	933.0849960933459	2108.44162176694	988.3859510649592	1007.144992353803	1899.603380493864	204.3729941915424	933.0440682123028	1867.531066221155	224.6324035958004	967.0065335165568	1932.154563201523	276.1560458618405	915.0488386239641	1900.476929683247	300.3711381008493	950.0430267380527	2101.322555638875	596.0473324483114	878.6400882395718	2042.829772465851	599.3760553811352	921.9897252956888	2102.508766725447	706.6806079551701	877.9906647200971	2052.518290306833	709.5948966971517	925.3021421247148	2268.459281663276	949.2654864822124	1147.898923294095	2172.033934789555	161.9490642380645	1089.428607915089	2005.857239038576	232.4073795920938	1072.30819728817	2034.306900877943	226.3950357368064	1111.691711925472	2045.551400451257	259.7465729262201	1071.478628315959	2215.914133994008	998.1300712219225	1185.990097234813	2165.034325602624	99.92106032045457	1048.384972229991	2141.019280070716	118.5704602260012	1149.886155040806	2114.828919969396	989.617180486036	1095.431854576212	2150.535580781775	299.487168942946	1134.547082965246	2122.079779515431	327.6595320189671	1097.035225165053	2194.97425770868	366.6270978956799	1147.733736474346	2167.489374622533	392.5589025622807	1109.415964894423	2355.472700413609	608.071387368007	1187.652560897585	2297.679621091139	573.2552325075663	1159.265448284812	2291.631759120584	696.1908390210853	1206.624151217506	2235.389297113292	661.3109900836967	1182.562530691424	
2253	15.01333333333333	2253.656861442748	938.481066568914	924.9506146255418	1755.988515318594	113.3032002526263	999.516718360621	1790.975349259957	114.2589587741509	955.9710717027762	1787.074199512424	152.0639494485677	998.7117447997036	2212.496492954058	1009.547334353805	894.2678211966054	1942.972625629258	44.34414537299593	1033.269295987571	1910.328218346606	47.51305493040086	932.5053315781674	2110.168517227723	993.1543130593486	1006.857252526708	1884.939356306949	213.3364888764137	932.5391425414509	1853.649069667818	232.9040139123646	967.6329215382229	1917.541969186752	285.4042816569021	915.727099313371	1886.645056615326	308.9187033785353	951.881860555538	2091.975210852852	603.0951262355454	880.7045183863055	2034.470375318926	608.7958217917509	925.177012347626	2097.024988221498	713.6922762120246	879.5154215084648	2048.183322179129	718.5706520072034	927.9727997318982	2269.823522286094	954.2783695735915	1147.066823333327	2199.088197467273	154.7693756185402	1089.771100826836	2027.920580454089	212.7799165706286	1070.18583063247	2056.373517658003	209.209797262635	1109.944436149951	2065.529717205797	243.0514607535883	1069.416404906185	2216.952298157933	1003.724464249053	1185.443336905541	2197.119789316274	91.839181160221	1049.432074421561	2170.732195961402	109.7570593175831	1150.331059331485	2116.596579669286	994.7040571712187	1095.028973364311	2167.645460188402	290.7675847493715	1133.064672122667	2137.671641666459	316.7198887892602	1095.075605031946	2207.409798097716	360.8946661685926	1146.010596095738	2178.59018208811	384.6647275910939	1107.256121513384	2358.556431306291	613.9412622833859	1185.477033358376	2300.372257970625	578.6426391563037	1158.44754451165	2294.378087038755	701.8044100477641	1205.124386519993	2238.048579182146	666.6227477318378	1181.753971112824	
2254	15.02	2254.946495812933	942.0173319144352	924.6051019542704	1741.865730629875	128.122425621203	998.6999361500369	1776.903015290255	126.2185439407727	955.1297600577468	1775.6405489406	164.4525768705595	997.7281778939796	2216.178778631983	1014.144332785021	894.5815423157964	1922.975255482631	45.69722050802846	1032.757817541324	1890.517565964136	50.35915222212886	931.8765955950709	2111.924972651456	997.8263853725349	1006.54733042377	1871.536480026828	222.3879860506297	932.1458801258436	1840.91519448756	241.298066383898	968.2258776258878	1904.231367322103	294.7147404701778	916.5066222421955	1874.030245728479	317.5669027579114	953.7015787284384	2083.699916934249	610.0817160439397	882.8851866323611	2027.148751064518	618.0577001280623	928.31530372105	2092.326243025698	720.5247348235584	880.9740349793631	2044.607476663233	727.2697978975143	930.4310999546797	2271.224183593812	958.9430999673932	1146.126084188086	2226.526493050486	148.2095828901451	1090.065317347334	2051.26843391361	193.2699710908848	1068.275653723255	2079.534712268973	192.0946052610529	1108.386031583069	2086.54511982109	226.3563271865013	1067.576307561072	2218.095916698454	1009.013957892529	1184.819460834639	2229.68177688587	84.86849682979003	1050.34407644763	2200.990063029457	101.5980193273147	1150.71434768786	2118.51278377732	999.5926131797305	1094.604087578146	2185.10795283718	281.8500112585286	1131.766198811279	2153.757182706981	305.5036025695955	1093.357908973278	2219.92877691999	354.6351674424835	1144.544186218209	2189.896351157095	376.1842582640381	1105.401779446567	2360.679456813643	618.8881235654904	1183.436532465169	2302.030883828574	583.2394036926659	1157.75364813049	2296.455293979208	706.7345365601947	1203.540288570146	2239.961598086309	671.4256356726839	1180.788869885422	
2255	15.02666666666667	2256.209649335009	945.3365907367205	924.2066629554828	1729.08670969425	143.4810029180517	998.1000344131833	1763.92291058802	138.7969498856362	954.4660509225164	1765.415261637314	177.2211027009321	996.9493051468289	2219.133939219612	1018.617690938642	894.9067665975742	1903.715344035377	47.75771687172289	1032.201699421911	1871.445619592742	53.9777734707466	931.2474392893397	2113.703314377583	1002.349844936462	1006.228366862678	1859.283044157207	231.3983412502589	931.9074154196621	1829.198907133559	249.7428873317432	968.7908814472793	1892.148923853751	303.9248226646362	917.3657973420243	1862.538490185176	326.2095458880611	955.4372039587336	2076.536999404689	616.8339870725125	885.0953339906473	2020.839059612635	626.9780502665874	931.2515071737799	2088.442659825339	727.0225268079861	882.3026423635897	2041.745247435943	735.5408039537959	932.5496980248428	2272.635937787783	963.1798271691641	1145.129874042329	2254.243935501335	142.4288398785975	1090.304078105911	2075.915608728054	174.0674431313249	1066.665168144131	2103.820922107109	175.2264799560096	1107.089939883643	2108.600005244717	209.8200768207676	1066.04965743584	2219.349181700256	1013.899700276869	1184.162557527015	2262.559222324624	79.21961204603016	1051.079692331071	2231.747018370757	94.27736502109492	1151.022395173403	2120.551425070655	1004.211333589836	1094.188794912493	2202.916965029331	272.8488087846343	1130.699267565731	2170.324138160718	294.1335479963565	1091.946602069344	2232.549793779171	347.9205739410235	1143.379733032485	2201.41252433333	367.2012347853208	1103.913577228871	2361.785703838418	622.817817559277	1181.556551891849	2302.618308313958	586.9794821017852	1157.132001668379	2297.796373268826	710.8752114954092	1201.914245535672	2241.079175255541	675.6295313218288	1179.653675009414	
